<svg width="12" height="9" viewBox="0 0 12 9" fill="none" xmlns="http://www.w3.org/2000/svg">
<path d="M2.4249 3.62495L4.5999 5.79995L9.5499 0.849952C9.73324 0.666618 9.96657 0.574951 10.2499 0.574951C10.5332 0.574951 10.7666 0.666618 10.9499 0.849952C11.1499 1.04995 11.2499 1.28328 11.2499 1.54995C11.2499 1.81662 11.1582 2.04162 10.9749 2.22495L5.2999 7.89995C5.11657 8.08328 4.88324 8.17495 4.5999 8.17495C4.31657 8.17495 4.08324 8.08328 3.8999 7.89995L1.0499 5.04995C0.866569 4.86662 0.774902 4.63329 0.774902 4.34995C0.774902 4.06662 0.866569 3.83328 1.0499 3.64995C1.2499 3.44995 1.48324 3.34995 1.7499 3.34995C2.01657 3.34995 2.24157 3.44162 2.4249 3.62495Z" fill="#0A0A2F"/>
<path d="M2.4249 3.62495L4.5999 5.79995L9.5499 0.849952C9.73324 0.666618 9.96657 0.574951 10.2499 0.574951C10.5332 0.574951 10.7666 0.666618 10.9499 0.849952C11.1499 1.04995 11.2499 1.28328 11.2499 1.54995C11.2499 1.81662 11.1582 2.04162 10.9749 2.22495L5.2999 7.89995C5.11657 8.08328 4.88324 8.17495 4.5999 8.17495C4.31657 8.17495 4.08324 8.08328 3.8999 7.89995L1.0499 5.04995C0.866569 4.86662 0.774902 4.63329 0.774902 4.34995C0.774902 4.06662 0.866569 3.83328 1.0499 3.64995C1.2499 3.44995 1.48324 3.34995 1.7499 3.34995C2.01657 3.34995 2.24157 3.44162 2.4249 3.62495Z" stroke="#0A0A2F"/>
</svg>
