<svg width="44" height="44" viewBox="0 0 44 44" fill="none" xmlns="http://www.w3.org/2000/svg">
<mask id="mask0_26_1688" style="mask-type:alpha" maskUnits="userSpaceOnUse" x="0" y="0" width="44" height="44">
<rect width="44" height="44" fill="#D9D9D9"/>
</mask>
<g mask="url(#mask0_26_1688)">
<path d="M21.9083 33C22.55 33 23.0927 32.7782 23.5363 32.3345C23.9788 31.8921 24.2 31.35 24.2 30.7083C24.2 30.0667 23.9788 29.5246 23.5363 29.0822C23.0927 28.6385 22.55 28.4167 21.9083 28.4167C21.2667 28.4167 20.724 28.6385 20.2803 29.0822C19.8379 29.5246 19.6167 30.0667 19.6167 30.7083C19.6167 31.35 19.8379 31.8921 20.2803 32.3345C20.724 32.7782 21.2667 33 21.9083 33ZM22.1833 14.1167C23.0389 14.1167 23.7264 14.3532 24.2458 14.8262C24.7653 15.3004 25.025 15.9194 25.025 16.6833C25.025 17.2028 24.8496 17.7296 24.4988 18.2637C24.1468 18.799 23.65 19.3569 23.0083 19.9375C22.0917 20.7319 21.4194 21.4958 20.9917 22.2292C20.5639 22.9625 20.35 23.6958 20.35 24.4292C20.35 24.8569 20.5107 25.2157 20.8322 25.5053C21.1524 25.7962 21.5264 25.9417 21.9542 25.9417C22.3819 25.9417 22.7639 25.7889 23.1 25.4833C23.4361 25.1778 23.65 24.7958 23.7417 24.3375C23.8333 23.8181 24.0399 23.3371 24.3613 22.8947C24.6815 22.451 25.2083 21.8778 25.9417 21.175C26.8889 20.2889 27.5538 19.4792 27.9363 18.7458C28.3177 18.0125 28.5083 17.2028 28.5083 16.3167C28.5083 14.7583 27.9204 13.4823 26.7447 12.4887C25.5677 11.4962 24.0472 11 22.1833 11C20.9 11 19.7621 11.2444 18.7697 11.7333C17.776 12.2222 17.0042 12.9708 16.4542 13.9792C16.2403 14.3764 16.1639 14.7657 16.225 15.147C16.2861 15.5296 16.5 15.8431 16.8667 16.0875C17.2639 16.3319 17.6996 16.4083 18.1738 16.3167C18.6468 16.225 19.0361 15.9653 19.3417 15.5375C19.6778 15.0792 20.0829 14.7278 20.5572 14.4833C21.0302 14.2389 21.5722 14.1167 22.1833 14.1167ZM22 40.3333C19.4944 40.3333 17.1264 39.8518 14.8958 38.8887C12.6653 37.9268 10.7177 36.6208 9.05299 34.9708C7.3871 33.3208 6.07321 31.3806 5.11132 29.15C4.14821 26.9194 3.66666 24.5361 3.66666 22C3.66666 19.4639 4.14821 17.0806 5.11132 14.85C6.07321 12.6194 7.3871 10.6792 9.05299 9.02917C10.7177 7.37917 12.6653 6.07261 14.8958 5.1095C17.1264 4.14761 19.4944 3.66667 22 3.66667C24.5667 3.66667 26.9653 4.14761 29.1958 5.1095C31.4264 6.07261 33.3667 7.37917 35.0167 9.02917C36.6667 10.6792 37.9653 12.6194 38.9125 14.85C39.8597 17.0806 40.3333 19.4639 40.3333 22C40.3333 24.5361 39.8597 26.9194 38.9125 29.15C37.9653 31.3806 36.6667 33.3208 35.0167 34.9708C33.3667 36.6208 31.4264 37.9268 29.1958 38.8887C26.9653 39.8518 24.5667 40.3333 22 40.3333Z" fill="white"/>
</g>
</svg>
