<svg width="134" height="19" viewBox="0 0 134 19" fill="none" xmlns="http://www.w3.org/2000/svg">
<path d="M8.0205 1.07C9.55954 1.07 10.9003 1.32387 12.0426 1.83159C13.185 2.33932 14.0656 3.06918 14.6844 4.02117C15.3032 4.97315 15.6126 6.08381 15.6126 7.35312C15.6126 8.62244 15.3032 9.73309 14.6844 10.6851C14.0656 11.6371 13.185 12.3669 12.0426 12.8747C10.9003 13.3824 9.55954 13.6362 8.0205 13.6362H6.01339C5.79432 13.6362 5.61673 13.8138 5.61673 14.0329V16.5398C5.61673 17.197 5.08395 17.7298 4.42674 17.7298H1.18998C0.532774 17.7298 0 17.197 0 16.5398V2.25999C0 1.60278 0.532774 1.07 1.18998 1.07H8.0205ZM7.6635 9.3047C8.42509 9.3047 8.99628 9.1381 9.37708 8.8049C9.75787 8.45584 9.94827 7.97191 9.94827 7.35312C9.94827 6.73433 9.75787 6.25834 9.37708 5.92514C8.99628 5.57608 8.42509 5.40155 7.6635 5.40155H6.01339C5.79432 5.40155 5.61673 5.57914 5.61673 5.79821V8.90804C5.61673 9.12711 5.79432 9.3047 6.01339 9.3047H7.6635Z" fill="white"/>
<path d="M17.534 2.25999C17.534 1.60278 18.0668 1.07 18.724 1.07H21.9607C22.6179 1.07 23.1507 1.60278 23.1507 2.25999V16.5398C23.1507 17.197 22.6179 17.7298 21.9607 17.7298H18.724C18.0668 17.7298 17.534 17.197 17.534 16.5398V2.25999Z" fill="white"/>
<path d="M37.1246 17.7298C36.7209 17.7298 36.3448 17.5252 36.1255 17.1863L33.9346 13.8004C33.7773 13.5572 33.4207 13.5592 33.2662 13.8042L31.1392 17.1748C30.9212 17.5203 30.5413 17.7298 30.1329 17.7298H25.9316C25.2857 17.7298 24.9105 16.9993 25.2867 16.4743L29.9161 10.0151C30.2109 9.60392 30.2133 9.0513 29.9223 8.63745L25.4798 2.31965C25.1102 1.794 25.4862 1.07 26.1288 1.07H30.2762C30.6713 1.07 31.0407 1.26613 31.262 1.59345L33.4074 4.76653C33.5658 5.00083 33.9115 4.99879 34.0672 4.76264L36.1483 1.60512C36.3685 1.27106 36.7418 1.07 37.1419 1.07H40.9987C41.6451 1.07 42.0201 1.80159 41.6428 2.32642L37.26 8.42268C36.9627 8.83624 36.9615 9.39318 37.2572 9.80796L42.0095 16.476C42.3838 17.0012 42.0084 17.7298 41.3635 17.7298H37.1246Z" fill="white"/>
<path d="M56.3385 13.4934C56.9957 13.4934 57.5285 14.0262 57.5285 14.6834V16.5398C57.5285 17.197 56.9957 17.7298 56.3385 17.7298H44.8671C44.2099 17.7298 43.6771 17.197 43.6771 16.5398V2.25999C43.6771 1.60278 44.2099 1.07 44.8671 1.07H56.0291C56.6863 1.07 57.2191 1.60278 57.2191 2.25999V4.11636C57.2191 4.77357 56.6863 5.30635 56.0291 5.30635H49.5953C49.3762 5.30635 49.1986 5.48394 49.1986 5.70301V6.86126C49.1986 7.08033 49.3762 7.25792 49.5953 7.25792H55.0533C55.7105 7.25792 56.2433 7.7907 56.2433 8.44791V10.1139C56.2433 10.7711 55.7105 11.3039 55.0533 11.3039H49.5953C49.3762 11.3039 49.1986 11.4815 49.1986 11.7005V13.0968C49.1986 13.3159 49.3762 13.4934 49.5953 13.4934H56.3385Z" fill="white"/>
<path d="M59.7701 2.25999C59.7701 1.60278 60.3028 1.07 60.9601 1.07H64.1968C64.854 1.07 65.3868 1.60278 65.3868 2.25999V12.9778C65.3868 13.1969 65.5644 13.3744 65.7835 13.3744H71.7175C72.3747 13.3744 72.9075 13.9072 72.9075 14.5644V16.5398C72.9075 17.197 72.3747 17.7298 71.7175 17.7298H60.9601C60.3028 17.7298 59.7701 17.197 59.7701 16.5398V2.25999Z" fill="white"/>
<path d="M90.5956 17.7298C89.9413 17.7298 89.4098 17.2016 89.4057 16.5473L89.3744 11.5651C89.3719 11.1632 88.8419 11.0195 88.6367 11.3651L86.0938 15.648C85.8794 16.0091 85.4905 16.2304 85.0705 16.2304H83.9349C83.5232 16.2304 83.1407 16.0176 82.9237 15.6678L80.3889 11.5821C80.1785 11.2429 79.6552 11.392 79.6552 11.7912V16.5398C79.6552 17.197 79.1224 17.7298 78.4652 17.7298H75.7283C75.071 17.7298 74.5383 17.197 74.5383 16.5398V2.25999C74.5383 1.60278 75.071 1.07 75.7283 1.07H78.4881C78.9026 1.07 79.2873 1.28569 79.5034 1.63936L84.2388 9.3862C84.3945 9.641 84.7653 9.63881 84.9181 9.3822L89.5193 1.65138C89.7338 1.29089 90.1223 1.07 90.5418 1.07H93.2958C93.9517 1.07 94.4839 1.60071 94.4858 2.25659L94.5266 16.5364C94.5285 17.1949 93.9952 17.7298 93.3366 17.7298H90.5956Z" fill="white"/>
<path d="M106.059 18.1106C104.267 18.1106 102.656 17.7377 101.228 16.992C99.8001 16.2463 98.6815 15.215 97.8723 13.898C97.0631 12.5653 96.6585 11.0659 96.6585 9.3999C96.6585 7.73392 97.0631 6.24247 97.8723 4.92555C98.6815 3.59277 99.8001 2.55352 101.228 1.80779C102.656 1.06207 104.267 0.689209 106.059 0.689209C107.852 0.689209 109.463 1.06207 110.891 1.80779C112.319 2.55352 113.437 3.59277 114.247 4.92555C115.056 6.24247 115.46 7.73392 115.46 9.3999C115.46 11.0659 115.056 12.5653 114.247 13.898C113.437 15.215 112.319 16.2463 110.891 16.992C109.463 17.7377 107.852 18.1106 106.059 18.1106ZM106.059 13.5648C106.758 13.5648 107.384 13.3982 107.94 13.065C108.511 12.716 108.963 12.2321 109.296 11.6133C109.629 10.9786 109.796 10.2408 109.796 9.3999C109.796 8.55897 109.629 7.82912 109.296 7.21032C108.963 6.57567 108.511 6.09174 107.94 5.75854C107.384 5.40948 106.758 5.23495 106.059 5.23495C105.361 5.23495 104.727 5.40948 104.155 5.75854C103.6 6.09174 103.156 6.57567 102.823 7.21032C102.489 7.82912 102.323 8.55897 102.323 9.3999C102.323 10.2408 102.489 10.9786 102.823 11.6133C103.156 12.2321 103.6 12.716 104.155 13.065C104.727 13.3982 105.361 13.5648 106.059 13.5648Z" fill="white"/>
<path d="M132.81 1.07C133.467 1.07 134 1.60278 134 2.25999V16.5398C134 17.197 133.467 17.7298 132.81 17.7298H129.939C129.586 17.7298 129.252 17.5736 129.026 17.3033L123.753 10.9994C123.515 10.7151 123.052 10.8833 123.052 11.2539V16.5398C123.052 17.197 122.519 17.7298 121.862 17.7298H118.768C118.111 17.7298 117.578 17.197 117.578 16.5398V2.25999C117.578 1.60278 118.111 1.07 118.768 1.07H121.639C121.992 1.07 122.326 1.22619 122.552 1.49649L127.825 7.80037C128.063 8.08466 128.526 7.9165 128.526 7.54587V2.25999C128.526 1.60278 129.059 1.07 129.716 1.07H132.81Z" fill="white"/>
</svg>
